<svg width="253" height="409" viewBox="0 0 253 409" fill="none" xmlns="http://www.w3.org/2000/svg">
<path d="M227 193.5C227 255.08 176.184 305 113.5 305C50.8157 305 0 255.08 0 193.5C0 131.92 50.8157 82 113.5 82C176.184 82 227 131.92 227 193.5Z" fill="#989CA0"/>
<path d="M285 111.5C285 173.08 234.184 223 171.5 223C108.816 223 58 173.08 58 111.5C58 49.9202 108.816 0 171.5 0C234.184 0 285 49.9202 285 111.5Z" fill="#989CA0"/>
<path d="M326 297.5C326 359.08 275.184 409 212.5 409C149.816 409 99 359.08 99 297.5C99 235.92 149.816 186 212.5 186C275.184 186 326 235.92 326 297.5Z" fill="#989CA0"/>
<path d="M220 297.5C220 325.39 182.168 348 135.5 348C88.8319 348 51 325.39 51 297.5C51 269.61 88.8319 247 135.5 247C182.168 247 220 269.61 220 297.5Z" fill="#989CA0"/>
</svg>
